<?xml version="1.0" encoding="UTF-8"?>
<svg width="523px" height="381px" viewBox="0 0 523 381" version="1.1" xmlns="http://www.w3.org/2000/svg" xmlns:xlink="http://www.w3.org/1999/xlink">
    <title>g14</title>
    <g id="Page-1" stroke="none" stroke-width="1" fill="none" fill-rule="evenodd">
        <g id="logo_fotex_RGB-(1)" transform="translate(-222.000000, -313.000000)" fill-rule="nonzero">
            <g id="g10" transform="translate(483.500000, 502.016000) scale(-1, 1) rotate(-180.000000) translate(-483.500000, -502.016000) translate(0.000000, 0.516000)">
                <g id="g12">
                    <g id="g14-Clipped">
                        <g id="g14" transform="translate(222.666661, 310.666659)">
                            <g id="g20" transform="translate(0.693600, 1.353733)" fill="#FFFFFF">
                                <path d="M386.666657,375.999991 L133.742663,375.999991 C60.3093318,375.999991 0.906666644,316.455992 0.906666644,243.197327 L0.906666644,133.763997 C0.906666644,60.2506652 60.3093318,0.557333319 133.742663,0.557333319 L386.666657,0.557333319 C460.089322,0.557333319 519.442654,60.2506652 519.442654,133.763997 L519.442654,243.197327 C519.442654,316.455992 460.089322,375.999991 386.666657,375.999991" id="path22"></path>
                            </g>
                            <g id="g24" transform="translate(329.425325, 188.109062)" fill="#0F223B">
                                <path d="M6.6666665,23.9999994 L6.53599984,23.9999994 C3.66533324,23.9999994 1.05333331,21.3719995 1.05333331,18.2799995 L1.05333331,0.733333315 L11.9799997,0.733333315 L11.9799997,18.2799995 C11.9799997,21.3719995 9.58933309,23.9999994 6.6666665,23.9999994" id="path26"></path>
                            </g>
                            <g id="g28" transform="translate(165.979463, 144.161063)" fill="#0F223B">
                                <path d="M0,6.6666665 C0,3.58533324 2.41199994,0.954666643 5.26399987,0.954666643 L5.3533332,0.954666643 C8.29599979,0.954666643 10.8773331,3.58533324 10.8773331,6.6666665 L10.8773331,33.1466658 L0,10.0506664 L0,6.6666665 Z" id="path30"></path>
                            </g>
                            <g id="g32" transform="translate(164.916929, 178.689729)" fill="#0F223B">
                                <path d="M6.6666665,33.3333325 L6.53599984,33.3333325 C3.65466658,33.3333325 1.06266664,30.7119992 1.06266664,27.674666 L1.06266664,1.10533331 L11.9399997,24.2173327 L11.9399997,27.674666 C11.9399997,30.7119992 9.54933309,33.3333325 6.6666665,33.3333325" id="path34"></path>
                            </g>
                            <g id="g36" transform="translate(1.312133, 0.612933)" fill="#0F223B">
                                <path d="M466.666655,127.999997 L434.563989,127.999997 L424.505323,157.139996 L414.48799,127.999997 L382.38399,127.999997 L399.917323,177.995996 L382.38399,227.847994 L414.48799,227.847994 L424.505323,199.562662 L434.563989,227.847994 L466.666655,227.847994 L449.103989,177.995996 L466.666655,127.999997 Z M370.835991,170.930662 L329.497325,170.930662 L329.497325,150.29733 C329.497325,147.25333 331.907992,144.571996 334.819992,144.571996 L334.950658,144.571996 C337.871992,144.571996 340.445325,147.25333 340.445325,150.29733 L340.445325,162.643996 L370.835991,162.643996 L370.835991,153.598663 C370.835991,139.547997 359.287991,127.999997 345.278658,127.999997 L324.182659,127.999997 C310.162659,127.999997 298.583993,139.547997 298.583993,153.598663 L298.583993,202.234662 C298.583993,216.305328 310.162659,227.847994 324.182659,227.847994 L345.278658,227.847994 C359.287991,227.847994 370.835991,216.305328 370.835991,202.234662 L370.835991,170.930662 Z M285.05466,210.325328 L265.999993,210.325328 L265.999993,150.08533 C265.999993,150.08533 266.201327,146.87333 267.52266,145.87333 C268.82266,144.891996 271.334661,143.56133 271.334661,143.56133 L285.05466,143.56133 L285.05466,127.999997 L259.315994,127.999997 C245.225327,127.999997 233.666661,139.547997 233.666661,153.598663 L233.666661,210.325328 L216.334661,210.325328 L216.334661,227.847994 L233.666661,227.847994 L233.666661,254.921327 C233.666661,254.921327 242.303994,253.061327 251.919994,259.765327 C261.65866,266.461327 262.807993,270.273327 262.807993,270.273327 L265.999993,270.273327 L265.999993,227.847994 L285.05466,227.847994 L285.05466,210.325328 Z M206.527995,153.598663 C206.527995,139.527997 195.038662,127.999997 180.889329,127.999997 L159.873329,127.999997 C145.75333,127.999997 134.26533,139.527997 134.26533,153.598663 L134.26533,202.294662 C134.26533,216.423995 145.75333,227.847994 159.873329,227.847994 L180.889329,227.847994 C195.038662,227.847994 206.527995,216.423995 206.527995,202.294662 L206.527995,153.598663 Z M122.77733,251.95066 L106.063997,251.95066 C106.063997,251.95066 105.214664,252.105327 103.702664,250.923994 C102.222664,249.689327 102.222664,247.897327 102.222664,247.897327 L102.222664,227.847994 L122.77733,227.847994 L122.77733,210.239995 L102.222664,210.239995 L102.222664,127.999997 L69.6386649,127.999997 L69.6386649,210.239995 L46.0506655,210.239995 L46.0506655,227.847994 L69.6386649,227.847994 L69.6386649,254.261327 C69.6386649,254.261327 69.6386649,263.267993 72.9199982,267.731993 C76.3226648,272.489327 79.6853313,272.489327 79.6853313,272.489327 L122.77733,272.489327 L122.77733,251.95066 Z M386.04799,376.741324 L133.123997,376.741324 C59.6906652,376.741324 0.287999993,317.197325 0.287999993,243.938661 L0.287999993,134.50533 C0.287999993,60.9906651 59.6906652,1.29866663 133.123997,1.29866663 L386.04799,1.29866663 C459.471989,1.29866663 518.823987,60.9906651 518.823987,134.50533 L518.823987,243.938661 C518.823987,317.197325 459.471989,376.741324 386.04799,376.741324" id="path38"></path>
                            </g>
                        </g>
                    </g>
                </g>
            </g>
        </g>
    </g>
</svg>